<svg xmlns="http://www.w3.org/2000/svg" xmlns:xlink="http://www.w3.org/1999/xlink" width="500" zoomAndPan="magnify" viewBox="0 0 375 374.999991" height="500" preserveAspectRatio="xMidYMid meet" version="1.0"><defs><g/></defs><g fill="#ffffff" fill-opacity="1"><g transform="translate(81.63867, 202.499987)"><g><path d="M 21.078125 0 L 19 -6.796875 L 8.59375 -6.796875 L 6.53125 0 L 0 0 L 10.078125 -28.671875 L 17.484375 -28.671875 L 27.59375 0 Z M 17.5625 -11.875 C 15.644531 -18.03125 14.566406 -21.507812 14.328125 -22.3125 C 14.085938 -23.125 13.914062 -23.765625 13.8125 -24.234375 C 13.382812 -22.566406 12.15625 -18.445312 10.125 -11.875 Z M 17.5625 -11.875 "/></g></g></g><g fill="#ffffff" fill-opacity="1"><g transform="translate(109.233635, 202.499987)"><g><path d="M 20.046875 0 L 3.59375 0 L 3.59375 -28.5625 L 20.046875 -28.5625 L 20.046875 -23.59375 L 9.65625 -23.59375 L 9.65625 -17.328125 L 19.3125 -17.328125 L 19.3125 -12.359375 L 9.65625 -12.359375 L 9.65625 -5 L 20.046875 -5 Z M 20.046875 0 "/></g></g></g><g fill="#ffffff" fill-opacity="1"><g transform="translate(131.633795, 202.499987)"><g><path d="M 9.65625 -15.875 L 11.609375 -15.875 C 13.515625 -15.875 14.921875 -16.191406 15.828125 -16.828125 C 16.742188 -17.472656 17.203125 -18.476562 17.203125 -19.84375 C 17.203125 -21.195312 16.738281 -22.160156 15.8125 -22.734375 C 14.882812 -23.304688 13.441406 -23.59375 11.484375 -23.59375 L 9.65625 -23.59375 Z M 9.65625 -10.953125 L 9.65625 0 L 3.59375 0 L 3.59375 -28.5625 L 11.921875 -28.5625 C 15.796875 -28.5625 18.664062 -27.851562 20.53125 -26.4375 C 22.394531 -25.019531 23.328125 -22.875 23.328125 -20 C 23.328125 -18.320312 22.863281 -16.828125 21.9375 -15.515625 C 21.007812 -14.210938 19.703125 -13.1875 18.015625 -12.4375 C 22.304688 -6.019531 25.101562 -1.875 26.40625 0 L 19.6875 0 L 12.875 -10.953125 Z M 9.65625 -10.953125 "/></g></g></g><g fill="#ffffff" fill-opacity="1"><g transform="translate(158.037465, 202.499987)"><g><path d="M 29.515625 -14.3125 C 29.515625 -9.59375 28.34375 -5.960938 26 -3.421875 C 23.65625 -0.878906 20.296875 0.390625 15.921875 0.390625 C 11.546875 0.390625 8.1875 -0.878906 5.84375 -3.421875 C 3.5 -5.960938 2.328125 -9.609375 2.328125 -14.359375 C 2.328125 -19.109375 3.5 -22.734375 5.84375 -25.234375 C 8.195312 -27.742188 11.566406 -29 15.953125 -29 C 20.347656 -29 23.707031 -27.734375 26.03125 -25.203125 C 28.351562 -22.679688 29.515625 -19.050781 29.515625 -14.3125 Z M 8.671875 -14.3125 C 8.671875 -11.125 9.273438 -8.722656 10.484375 -7.109375 C 11.703125 -5.492188 13.515625 -4.6875 15.921875 -4.6875 C 20.753906 -4.6875 23.171875 -7.894531 23.171875 -14.3125 C 23.171875 -20.75 20.765625 -23.96875 15.953125 -23.96875 C 13.546875 -23.96875 11.726562 -23.15625 10.5 -21.53125 C 9.28125 -19.914062 8.671875 -17.507812 8.671875 -14.3125 Z M 8.671875 -14.3125 "/></g></g></g><g fill="#ffffff" fill-opacity="1"><g transform="translate(189.870291, 202.499987)"><g><path d="M 21.078125 0 L 19 -6.796875 L 8.59375 -6.796875 L 6.53125 0 L 0 0 L 10.078125 -28.671875 L 17.484375 -28.671875 L 27.59375 0 Z M 17.5625 -11.875 C 15.644531 -18.03125 14.566406 -21.507812 14.328125 -22.3125 C 14.085938 -23.125 13.914062 -23.765625 13.8125 -24.234375 C 13.382812 -22.566406 12.15625 -18.445312 10.125 -11.875 Z M 17.5625 -11.875 "/></g></g></g><g fill="#ffffff" fill-opacity="1"><g transform="translate(217.465256, 202.499987)"><g><path d="M 20.453125 -7.9375 C 20.453125 -5.351562 19.523438 -3.316406 17.671875 -1.828125 C 15.816406 -0.347656 13.234375 0.390625 9.921875 0.390625 C 6.878906 0.390625 4.1875 -0.179688 1.84375 -1.328125 L 1.84375 -6.953125 C 3.769531 -6.097656 5.398438 -5.492188 6.734375 -5.140625 C 8.066406 -4.785156 9.285156 -4.609375 10.390625 -4.609375 C 11.722656 -4.609375 12.742188 -4.863281 13.453125 -5.375 C 14.160156 -5.882812 14.515625 -6.640625 14.515625 -7.640625 C 14.515625 -8.203125 14.359375 -8.695312 14.046875 -9.125 C 13.734375 -9.5625 13.273438 -9.984375 12.671875 -10.390625 C 12.066406 -10.796875 10.832031 -11.441406 8.96875 -12.328125 C 7.21875 -13.148438 5.90625 -13.9375 5.03125 -14.6875 C 4.164062 -15.445312 3.472656 -16.328125 2.953125 -17.328125 C 2.429688 -18.328125 2.171875 -19.5 2.171875 -20.84375 C 2.171875 -23.363281 3.023438 -25.347656 4.734375 -26.796875 C 6.453125 -28.242188 8.820312 -28.96875 11.84375 -28.96875 C 13.320312 -28.96875 14.734375 -28.789062 16.078125 -28.4375 C 17.429688 -28.082031 18.84375 -27.585938 20.3125 -26.953125 L 18.359375 -22.25 C 16.835938 -22.875 15.578125 -23.304688 14.578125 -23.546875 C 13.585938 -23.796875 12.609375 -23.921875 11.640625 -23.921875 C 10.492188 -23.921875 9.613281 -23.65625 9 -23.125 C 8.394531 -22.59375 8.09375 -21.894531 8.09375 -21.03125 C 8.09375 -20.5 8.210938 -20.035156 8.453125 -19.640625 C 8.703125 -19.242188 9.097656 -18.859375 9.640625 -18.484375 C 10.179688 -18.117188 11.460938 -17.453125 13.484375 -16.484375 C 16.148438 -15.210938 17.976562 -13.929688 18.96875 -12.640625 C 19.957031 -11.359375 20.453125 -9.789062 20.453125 -7.9375 Z M 20.453125 -7.9375 "/></g></g></g><g fill="#ffffff" fill-opacity="1"><g transform="translate(239.494353, 202.499987)"><g><path d="M 20.453125 -7.9375 C 20.453125 -5.351562 19.523438 -3.316406 17.671875 -1.828125 C 15.816406 -0.347656 13.234375 0.390625 9.921875 0.390625 C 6.878906 0.390625 4.1875 -0.179688 1.84375 -1.328125 L 1.84375 -6.953125 C 3.769531 -6.097656 5.398438 -5.492188 6.734375 -5.140625 C 8.066406 -4.785156 9.285156 -4.609375 10.390625 -4.609375 C 11.722656 -4.609375 12.742188 -4.863281 13.453125 -5.375 C 14.160156 -5.882812 14.515625 -6.640625 14.515625 -7.640625 C 14.515625 -8.203125 14.359375 -8.695312 14.046875 -9.125 C 13.734375 -9.5625 13.273438 -9.984375 12.671875 -10.390625 C 12.066406 -10.796875 10.832031 -11.441406 8.96875 -12.328125 C 7.21875 -13.148438 5.90625 -13.9375 5.03125 -14.6875 C 4.164062 -15.445312 3.472656 -16.328125 2.953125 -17.328125 C 2.429688 -18.328125 2.171875 -19.5 2.171875 -20.84375 C 2.171875 -23.363281 3.023438 -25.347656 4.734375 -26.796875 C 6.453125 -28.242188 8.820312 -28.96875 11.84375 -28.96875 C 13.320312 -28.96875 14.734375 -28.789062 16.078125 -28.4375 C 17.429688 -28.082031 18.84375 -27.585938 20.3125 -26.953125 L 18.359375 -22.25 C 16.835938 -22.875 15.578125 -23.304688 14.578125 -23.546875 C 13.585938 -23.796875 12.609375 -23.921875 11.640625 -23.921875 C 10.492188 -23.921875 9.613281 -23.65625 9 -23.125 C 8.394531 -22.59375 8.09375 -21.894531 8.09375 -21.03125 C 8.09375 -20.5 8.210938 -20.035156 8.453125 -19.640625 C 8.703125 -19.242188 9.097656 -18.859375 9.640625 -18.484375 C 10.179688 -18.117188 11.460938 -17.453125 13.484375 -16.484375 C 16.148438 -15.210938 17.976562 -13.929688 18.96875 -12.640625 C 19.957031 -11.359375 20.453125 -9.789062 20.453125 -7.9375 Z M 20.453125 -7.9375 "/></g></g></g><g fill="#ffffff" fill-opacity="1"><g transform="translate(261.52345, 202.499987)"><g><path d="M 29.515625 -14.3125 C 29.515625 -9.59375 28.34375 -5.960938 26 -3.421875 C 23.65625 -0.878906 20.296875 0.390625 15.921875 0.390625 C 11.546875 0.390625 8.1875 -0.878906 5.84375 -3.421875 C 3.5 -5.960938 2.328125 -9.609375 2.328125 -14.359375 C 2.328125 -19.109375 3.5 -22.734375 5.84375 -25.234375 C 8.195312 -27.742188 11.566406 -29 15.953125 -29 C 20.347656 -29 23.707031 -27.734375 26.03125 -25.203125 C 28.351562 -22.679688 29.515625 -19.050781 29.515625 -14.3125 Z M 8.671875 -14.3125 C 8.671875 -11.125 9.273438 -8.722656 10.484375 -7.109375 C 11.703125 -5.492188 13.515625 -4.6875 15.921875 -4.6875 C 20.753906 -4.6875 23.171875 -7.894531 23.171875 -14.3125 C 23.171875 -20.75 20.765625 -23.96875 15.953125 -23.96875 C 13.546875 -23.96875 11.726562 -23.15625 10.5 -21.53125 C 9.28125 -19.914062 8.671875 -17.507812 8.671875 -14.3125 Z M 8.671875 -14.3125 "/></g></g></g></svg>